<?xml version="1.0" encoding="iso-8859-1"?>
<!-- Generator: Adobe Illustrator 19.0.0, SVG Export Plug-In . SVG Version: 6.00 Build 0)  -->
<svg version="1.1" id="Layer_1" xmlns="http://www.w3.org/2000/svg" xmlns:xlink="http://www.w3.org/1999/xlink" x="0px" y="0px"
	 viewBox="0 0 512.002 512.002" style="enable-background:new 0 0 512.002 512.002;" xml:space="preserve">
<g>
	<g>
		<path d="M488.562,232.561c0-21.007-6.908-40.845-19.67-57.045c2.953-20.411-0.983-41.042-11.485-59.234
			c-10.503-18.194-26.402-31.918-45.558-39.567c-7.649-19.157-21.373-35.055-39.567-45.558
			c-14.045-8.108-30.008-12.395-46.161-12.395c-4.374,0-8.734,0.309-13.056,0.923C296.859,6.914,277.015,0,256.001,0
			c-21.016,0-40.859,6.914-57.064,19.687c-4.321-0.615-8.684-0.924-13.056-0.924c-16.153,0-32.114,4.285-46.16,12.393
			c-18.191,10.503-31.916,26.404-39.565,45.559C80.999,84.364,65.1,98.088,54.596,116.282
			c-10.503,18.192-14.437,38.824-11.484,59.234c-12.762,16.201-19.672,36.039-19.672,57.045c0,21.007,6.906,40.842,19.672,57.043
			c-2.951,20.411,0.984,41.043,11.486,59.237c10.503,18.192,26.405,31.918,45.559,39.565c5.978,14.971,15.679,27.936,28.311,37.909
			v63.179c0,12.429,10.077,22.506,22.506,22.506s22.506-10.077,22.506-22.506V445.51c4.101,0.56,8.243,0.848,12.399,0.848
			c4.374,0,8.735-0.309,13.058-0.923c16.204,12.773,36.048,19.687,57.064,19.687s40.859-6.912,57.064-19.687
			c4.321,0.615,8.684,0.924,13.056,0.924c0.002,0,0.002,0,0.002,0c4.156,0,8.299-0.288,12.401-0.848v43.984
			c0,12.429,10.077,22.506,22.506,22.506s22.506-10.077,22.506-22.506v-63.177c12.632-9.972,22.336-22.941,28.314-37.91
			c19.154-7.649,35.055-21.375,45.558-39.567c10.503-18.194,14.44-38.824,11.485-59.235
			C481.654,273.406,488.562,253.568,488.562,232.561z M428.919,266.833c-6.041,5.796-8.363,14.468-6.032,22.507
			c3.644,12.56,2.059,25.699-4.464,36.997c-6.522,11.297-17.106,19.238-29.807,22.362c-8.131,2-14.479,8.347-16.479,16.477
			c-3.124,12.699-11.065,23.286-22.362,29.805c-11.146,6.434-24.678,8.035-36.994,4.464c-8.041-2.333-16.713-0.01-22.51,6.03
			c-9.056,9.436-21.228,14.633-34.272,14.633s-25.216-5.197-34.272-14.633c-4.306-4.486-10.198-6.921-16.24-6.921
			c-2.092,0-4.201,0.291-6.269,0.891c-12.323,3.574-25.853,1.97-36.994-4.462c-11.295-6.522-19.238-17.109-22.363-29.81
			c-2-8.131-8.348-14.477-16.477-16.477c-12.699-3.124-23.285-11.065-29.807-22.36c-6.522-11.298-8.108-24.438-4.464-36.998
			c2.332-8.039,0.009-16.711-6.032-22.507c-9.436-9.056-14.632-21.226-14.632-34.271c0-13.043,5.197-25.216,14.633-34.272
			c6.041-5.798,8.365-14.47,6.032-22.51c-3.644-12.558-2.06-25.697,4.461-36.992c6.522-11.297,17.109-19.238,29.81-22.363
			c8.129-2,14.476-8.347,16.476-16.477c3.125-12.702,11.067-23.288,22.362-29.807c11.145-6.434,24.675-8.035,36.994-4.465
			c8.044,2.336,16.714,0.012,22.51-6.03c9.056-9.433,21.227-14.63,34.272-14.63s25.216,5.197,34.272,14.632
			c5.796,6.038,14.465,8.36,22.507,6.032c12.32-3.577,25.852-1.97,36.995,4.465c11.297,6.521,19.238,17.106,22.362,29.805
			c2,8.131,8.348,14.477,16.477,16.479c12.701,3.125,23.288,11.067,29.808,22.362c6.522,11.298,8.108,24.437,4.465,36.995
			c-2.333,8.041-0.009,16.713,6.032,22.509c9.434,9.055,14.63,21.226,14.63,34.272C443.55,245.605,438.354,257.778,428.919,266.833z
			"/>
	</g>
</g>
<g>
	<g>
		<path d="M379.585,234.297l-41.682-41.685c-4.929-40.83-39.766-72.58-81.902-72.58s-76.973,31.75-81.902,72.58l-41.685,41.685
			c-8.789,8.788-8.789,23.039,0,31.828c4.395,4.395,10.155,6.593,15.913,6.593c5.76,0,11.52-2.198,15.913-6.593l9.238-9.238v5.682
			c0,45.502,37.019,82.522,82.522,82.522c45.502,0,82.522-37.019,82.522-82.522v-5.682l9.238,9.238
			c4.395,4.395,10.155,6.593,15.913,6.593c5.76,0,11.52-2.198,15.913-6.593C388.374,257.337,388.374,243.086,379.585,234.297z
			 M293.511,262.569c0,20.683-16.827,37.51-37.51,37.51s-37.51-16.827-37.51-37.51v-60.016c0-20.683,16.827-37.51,37.51-37.51
			s37.51,16.827,37.51,37.51V262.569z"/>
	</g>
</g>
<g>
</g>
<g>
</g>
<g>
</g>
<g>
</g>
<g>
</g>
<g>
</g>
<g>
</g>
<g>
</g>
<g>
</g>
<g>
</g>
<g>
</g>
<g>
</g>
<g>
</g>
<g>
</g>
<g>
</g>
</svg>
